# xmcd CD database file
#
# Track frame offsets:
#	150
#	12125
#	24207
#	36090
#	50177
#	68740
#	80400
#	93400
#	106210
#	119792
#	132827
#	145955
#	159422
#	171692
#	184355
#	197955
#	210492
#	232180
#	244090
#	256017
#
# Disc length: 3574 seconds
#
# Revision: 0
# Processed by: cddbd v1.5.1PL0 Copyright (c) Steve Scherf et al.
# Submitted via: CDex 1.51
#
DISCID=200df414
DTITLE=Slim and Slam - anthologie cabu vol.2
DYEAR=1999
DGENRE=Jazz
TTITLE0=Buck dance rythm
TTITLE1=I got Rythm
TTITLE2=The lady's in love with you
TTITLE3=Tutti frutti
TTITLE4=Caprice paganini
TTITLE5=Sploghm
TTITLE6=Fitzwater street
TTITLE7=Rythm mad
TTITLE8=Bongo
TTITLE9=Broadway jump
TTITLE10=Ah now
TTITLE11=A tip on the numbers
TTITLE12=Slim slam boogie
TTITLE13=Bassology
TTITLE14=B-19
TTITLE15=African Jive
TTITLE16=Helzapoppin'
TTITLE17=Palm Springs jump
TTITLE18=Ra-da-da-da
TTITLE19=Groove juice special
EXTD=YEAR: 1999
EXTT0=
EXTT1=
EXTT2=
EXTT3=
EXTT4=
EXTT5=
EXTT6=
EXTT7=
EXTT8=
EXTT9=
EXTT10=
EXTT11=
EXTT12=
EXTT13=
EXTT14=
EXTT15=
EXTT16=
EXTT17=
EXTT18=
EXTT19=
PLAYORDER=
